<svg width="248" height="90" viewBox="0 0 248 90" fill="none" xmlns="http://www.w3.org/2000/svg">
<path fill-rule="evenodd" clip-rule="evenodd" d="M42.8311 16.833V87.96H24.8408V16.833H0V2H67.7314V16.833H42.8311ZM201.772 49.7158H202.01L223.694 24.1006L243.411 28.1006L219.047 51.5029L244.603 87.96H224.587L206.299 61.9873L201.772 66.8721V87.96H184.377V22H201.772V49.7158ZM83.7582 76.4033C77.8608 76.4033 73.9291 73.4248 73.9291 68.6592C73.9291 64.1318 77.6225 61.2129 84.1157 60.7363L97.5786 59.9023V64.5488C97.5786 71.459 91.3237 76.4033 83.7582 76.4033ZM78.0395 88.9727C86.0219 88.9727 93.9448 84.9814 97.519 78.1904H97.8764V87.96H114.675V44.0566C114.675 31.1895 104.012 22.7305 87.6303 22.7305C70.7123 22.7305 60.1684 31.249 59.5131 43.6396H75.4184C76.2524 38.9336 80.3627 35.7168 86.8559 35.7168C93.4086 35.7168 97.5786 39.1719 97.5786 45.1289V49.3584L81.4946 50.3115C65.5893 51.2646 56.6537 57.9961 56.6537 69.6123C56.6537 81.1094 65.8871 88.9727 78.0395 88.9727ZM122.422 42.8652C122.422 52.2773 128.617 58.5918 140.71 61.332L152.505 63.9531C158.224 65.3232 160.368 67.1104 160.368 70.3271C160.368 74.4971 156.377 77.1182 149.765 77.1182C142.854 77.1182 138.625 74.0205 137.791 68.6592H120.813C121.766 81.1094 132.251 89.3301 149.288 89.3301C166.146 89.3301 177.703 81.0498 177.703 68.4805C177.703 58.9492 172.52 53.8857 159.713 51.0264L147.501 48.4053C141.901 47.0947 139.161 44.9502 139.161 41.793C139.161 37.6826 143.093 34.9424 149.109 34.9424C155.543 34.9424 159.653 38.0996 160.011 43.2227H176.035C175.797 30.832 165.372 22.7305 149.348 22.7305C132.966 22.7305 122.422 30.7129 122.422 42.8652Z" fill="white"/>
<path fill-rule="evenodd" clip-rule="evenodd" d="M244.404 28.1761L198.812 69.8792C196.18 72.2869 192.374 72.9127 189.109 71.4745C185.845 70.0363 183.738 66.8057 183.738 63.2383L183.738 22.0428L201.738 22.0428L201.738 42.8087L232.255 14.8943L244.404 28.1761Z" fill="#0DF1FF"/>
</svg>
