<svg width="164" height="80" viewBox="0 0 164 80" fill="none" xmlns="http://www.w3.org/2000/svg">
<path d="M15.8168 8.944C14.4408 8.944 13.4168 9.344 12.7448 10.144C12.1048 10.944 11.7848 12.368 11.7848 14.416V20.08H19.7528V14.32C19.7528 12.976 19.5928 11.904 19.2728 11.104C18.9528 10.272 18.5048 9.712 17.9288 9.424C17.3848 9.104 16.6808 8.944 15.8168 8.944ZM19.7528 26.704H11.7848V29.248C11.7848 30.88 11.3528 32.08 10.4888 32.848C9.62481 33.616 8.13681 34 6.02481 34C5.12881 34 4.39281 33.872 3.81681 33.616C3.24081 33.36 2.72881 32.928 2.28081 32.32C1.86481 31.712 1.54481 30.832 1.32081 29.68C1.12881 28.496 0.968813 27.088 0.840813 25.456C0.744813 23.792 0.696813 21.696 0.696813 19.168C0.696813 16.96 0.920813 14.944 1.36881 13.12C1.84881 11.264 2.47281 9.696 3.24081 8.416C4.04081 7.136 4.93681 6.016 5.92881 5.056C6.92081 4.064 7.99281 3.296 9.14481 2.752C10.3288 2.208 11.4648 1.808 12.5528 1.552C13.6728 1.264 14.7928 1.12 15.9128 1.12C17.2568 1.12 18.5848 1.312 19.8968 1.696C21.2088 2.048 22.5368 2.672 23.8808 3.568C25.2248 4.464 26.3928 5.584 27.3848 6.928C28.4088 8.24 29.2408 9.952 29.8808 12.064C30.5208 14.176 30.8408 16.544 30.8408 19.168C30.8408 23.392 30.6808 26.528 30.3608 28.576C30.0728 30.592 29.5608 32 28.8248 32.8C28.1208 33.6 27.0168 34 25.5128 34C23.4008 34 21.9128 33.616 21.0488 32.848C20.1848 32.08 19.7528 30.88 19.7528 29.248V26.704ZM49.7487 21.088C49.7487 19.296 49.0447 18.4 47.6367 18.4C46.9647 18.4 46.4047 18.688 45.9567 19.264C45.5407 19.808 45.3007 20.544 45.2367 21.472V28.864C45.2367 30.816 44.8367 32.16 44.0367 32.896C43.2367 33.632 41.8287 34 39.8127 34C37.9247 34 36.6287 33.568 35.9247 32.704C35.2527 31.808 34.9167 30.352 34.9167 28.336V16.528C34.9167 14.896 35.3487 13.584 36.2127 12.592C37.1087 11.6 38.2927 11.104 39.7647 11.104C40.9807 11.104 42.0047 11.28 42.8367 11.632C43.6687 11.984 44.2927 12.592 44.7087 13.456C47.2047 11.824 50.2447 11.008 53.8287 11.008C56.1007 11.008 57.7327 11.904 58.7247 13.696C59.7487 15.488 60.2607 18.432 60.2607 22.528C60.2607 24.544 60.2127 26.192 60.1167 27.472C60.0207 28.72 59.8607 29.808 59.6367 30.736C59.4447 31.632 59.1247 32.304 58.6767 32.752C58.2287 33.2 57.7007 33.52 57.0927 33.712C56.5167 33.904 55.7647 34 54.8367 34C53.0447 34 51.7487 33.664 50.9487 32.992C50.1807 32.32 49.7967 31.328 49.7967 30.016L49.7487 21.088ZM64.4468 4.432C64.4468 3.376 64.8948 2.512 65.7908 1.84C66.7188 1.136 68.0148 0.783998 69.6788 0.783998C73.1668 0.783998 74.9108 2 74.9108 4.432C74.9108 5.776 74.4628 6.72 73.5668 7.264C72.7028 7.808 71.4068 8.08 69.6788 8.08C68.1748 8.08 66.9268 7.792 65.9348 7.216C64.9428 6.64 64.4468 5.712 64.4468 4.432ZM74.8628 28.864C74.8628 30.784 74.4628 32.128 73.6628 32.896C72.8628 33.632 71.4548 34 69.4388 34C67.5508 34 66.2548 33.568 65.5508 32.704C64.8788 31.808 64.5428 30.352 64.5428 28.336V16.528C64.5428 14.896 64.9748 13.584 65.8388 12.592C66.7348 11.6 67.9188 11.104 69.3908 11.104C71.1188 11.104 72.4628 11.488 73.4228 12.256C74.3828 12.992 74.8628 14.368 74.8628 16.384V28.864ZM107.68 21.328C107.68 19.536 106.96 18.64 105.52 18.64C104.88 18.64 104.4 19.008 104.08 19.744C103.76 20.48 103.6 21.408 103.6 22.528C103.6 24.224 103.568 25.632 103.504 26.752C103.472 27.872 103.376 28.88 103.216 29.776C103.056 30.672 102.864 31.376 102.64 31.888C102.416 32.4 102.112 32.832 101.728 33.184C101.344 33.504 100.912 33.728 100.432 33.856C99.9518 33.952 99.3438 34 98.6078 34C97.4878 34 96.5758 33.84 95.8718 33.52C95.1998 33.2 94.7198 32.752 94.4318 32.176C94.1438 31.6 93.9998 30.88 93.9998 30.016V21.328C93.9998 19.536 93.2798 18.64 91.8398 18.64C91.2638 18.64 90.7838 18.976 90.3998 19.648C90.0478 20.288 89.8718 21.136 89.8718 22.192V28.864C89.8718 30.784 89.4718 32.128 88.6718 32.896C87.8718 33.632 86.4638 34 84.4478 34C82.5598 34 81.2638 33.568 80.5598 32.704C79.8878 31.808 79.5518 30.352 79.5518 28.336V16.528C79.5518 14.896 79.9838 13.584 80.8478 12.592C81.7438 11.6 82.9278 11.104 84.3998 11.104C87.0238 11.104 88.6878 11.952 89.3918 13.648C90.6078 12.752 91.7918 12.128 92.9438 11.776C94.1278 11.424 95.5038 11.248 97.0718 11.248C99.4398 11.248 101.152 12.272 102.208 14.32C102.368 14.192 102.528 14.064 102.688 13.936C105.152 12.144 108.176 11.248 111.76 11.248C114.032 11.248 115.664 12.112 116.656 13.84C117.648 15.568 118.144 18.464 118.144 22.528C118.144 24.224 118.112 25.632 118.048 26.752C118.016 27.872 117.92 28.88 117.76 29.776C117.6 30.672 117.392 31.376 117.136 31.888C116.912 32.4 116.576 32.832 116.128 33.184C115.712 33.504 115.232 33.728 114.688 33.856C114.176 33.952 113.52 34 112.72 34C111.504 34 110.512 33.84 109.744 33.52C109.008 33.2 108.48 32.752 108.16 32.176C107.84 31.6 107.68 30.88 107.68 30.016V21.328ZM131.261 34.288C128.733 34.288 126.637 33.264 124.973 31.216C123.309 29.136 122.477 26.304 122.477 22.72C122.477 19.072 123.293 16.176 124.925 14.032C126.589 11.856 128.701 10.768 131.261 10.768C133.853 10.768 136.253 11.68 138.461 13.504C139.325 11.904 140.717 11.104 142.637 11.104C144.365 11.104 145.709 11.488 146.669 12.256C147.629 12.992 148.109 14.368 148.109 16.384V28.864C148.109 30.784 147.709 32.128 146.909 32.896C146.109 33.632 144.701 34 142.685 34C140.573 34 139.181 33.408 138.509 32.224C136.461 33.6 134.045 34.288 131.261 34.288ZM137.789 18.112C137.245 17.184 136.541 16.72 135.677 16.72C134.845 16.72 134.173 17.328 133.661 18.544C133.149 19.76 132.893 21.152 132.893 22.72C132.893 24.192 133.133 25.504 133.613 26.656C134.093 27.808 134.765 28.384 135.629 28.384C136.525 28.384 137.245 27.952 137.789 27.088V18.112ZM163.182 26.752C163.182 29.344 162.75 31.2 161.886 32.32C161.022 33.44 159.694 34 157.902 34C156.11 34 154.798 33.504 153.966 32.512C153.134 31.488 152.718 29.696 152.718 27.136L152.622 6.88C152.622 6.048 152.702 5.312 152.862 4.672C153.054 4.032 153.294 3.488 153.582 3.04C153.902 2.592 154.286 2.224 154.734 1.936C155.182 1.648 155.662 1.44 156.174 1.312C156.718 1.184 157.294 1.12 157.902 1.12C159.662 1.12 160.974 1.472 161.838 2.176C162.734 2.88 163.182 4.304 163.182 6.448V26.752ZM26.8285 72.328C26.8285 74.504 26.3485 76.168 25.3885 77.32C24.4285 78.44 23.0365 79 21.2125 79C19.4845 79 18.1405 78.488 17.1805 77.464C16.2205 76.408 15.7405 74.632 15.7405 72.136V51.88C15.7405 50.856 15.8685 49.976 16.1245 49.24C16.4125 48.472 16.8125 47.864 17.3245 47.416C17.8365 46.968 18.4125 46.648 19.0525 46.456C19.6925 46.232 20.4125 46.12 21.2125 46.12H36.9565C38.8125 46.12 40.1885 46.408 41.0845 46.984C42.0125 47.56 42.4765 48.6 42.4765 50.104C42.4765 51.512 42.0765 52.504 41.2765 53.08C40.5085 53.624 39.2285 53.896 37.4365 53.896H26.8285V59.512H35.2765C36.1405 59.512 36.8605 59.576 37.4365 59.704C38.0445 59.832 38.5245 60.056 38.8765 60.376C39.2605 60.664 39.5165 61.032 39.6445 61.48C39.8045 61.896 39.8845 62.44 39.8845 63.112C39.8845 64.2 39.4845 64.984 38.6845 65.464C37.8845 65.912 36.6045 66.136 34.8445 66.136H26.8285V72.328ZM53.0969 79.288C50.5689 79.288 48.4729 78.264 46.8089 76.216C45.1449 74.136 44.3129 71.304 44.3129 67.72C44.3129 64.072 45.1289 61.176 46.7609 59.032C48.4249 56.856 50.5369 55.768 53.0969 55.768C55.6889 55.768 58.0889 56.68 60.2969 58.504C61.1609 56.904 62.5529 56.104 64.4729 56.104C66.2009 56.104 67.5449 56.488 68.5049 57.256C69.4649 57.992 69.9449 59.368 69.9449 61.384V73.864C69.9449 75.784 69.5449 77.128 68.7449 77.896C67.9449 78.632 66.5369 79 64.5209 79C62.4089 79 61.0169 78.408 60.3449 77.224C58.2969 78.6 55.8809 79.288 53.0969 79.288ZM59.6249 63.112C59.0809 62.184 58.3769 61.72 57.5129 61.72C56.6809 61.72 56.0089 62.328 55.4969 63.544C54.9849 64.76 54.7289 66.152 54.7289 67.72C54.7289 69.192 54.9689 70.504 55.4489 71.656C55.9289 72.808 56.6009 73.384 57.4649 73.384C58.3609 73.384 59.0809 72.952 59.6249 72.088V63.112ZM88.666 61.048C88.666 60.312 88.25 59.944 87.418 59.944C86.81 59.944 86.266 60.28 85.786 60.952C85.306 61.624 84.938 62.472 84.682 63.496C84.426 64.488 84.298 65.528 84.298 66.616C84.298 68.216 84.778 69.512 85.738 70.504C86.73 71.496 88.058 71.992 89.722 71.992C91.354 71.992 92.762 71.8 93.946 71.416C94.426 71.288 95.002 71.048 95.674 70.696C96.378 70.344 96.874 70.168 97.162 70.168C97.61 70.168 97.978 70.248 98.266 70.408C98.554 70.568 98.746 70.76 98.842 70.984C98.97 71.208 99.034 71.448 99.034 71.704C99.034 72.152 98.874 72.696 98.554 73.336C98.266 73.976 97.802 74.648 97.162 75.352C96.522 76.056 95.77 76.712 94.906 77.32C94.074 77.896 93.034 78.376 91.786 78.76C90.538 79.144 89.226 79.336 87.85 79.336C83.882 79.336 80.618 78.28 78.058 76.168C75.498 74.024 74.218 71.096 74.218 67.384C74.218 65.016 74.794 62.952 75.946 61.192C77.13 59.4 78.746 58.056 80.794 57.16C82.842 56.232 85.194 55.768 87.85 55.768C90.378 55.768 92.458 56.072 94.09 56.68C95.754 57.256 96.938 58.04 97.642 59.032C98.346 60.024 98.698 61.208 98.698 62.584C98.698 63.192 98.57 63.816 98.314 64.456C98.09 65.096 97.722 65.736 97.21 66.376C96.73 67.016 96.01 67.544 95.05 67.96C94.09 68.344 92.97 68.536 91.69 68.536C91.114 68.536 90.634 68.504 90.25 68.44C89.898 68.376 89.514 68.248 89.098 68.056C88.714 67.832 88.426 67.48 88.234 67C88.042 66.52 87.946 65.912 87.946 65.176C87.946 64.536 88.058 63.768 88.282 62.872C88.538 61.944 88.666 61.336 88.666 61.048ZM104.796 68.728V63.064C103.996 63.032 103.356 62.904 102.876 62.68C102.396 62.424 102.044 62.104 101.82 61.72C101.628 61.336 101.532 60.856 101.532 60.28C101.532 58.456 102.636 57.464 104.844 57.304V52.84C104.844 51.624 105.724 50.536 107.484 49.576C109.244 48.584 110.988 48.088 112.716 48.088C113.772 48.088 114.46 48.392 114.78 49C115.1 49.608 115.26 50.52 115.26 51.736L115.308 57.256H116.604C118.364 57.256 119.564 57.496 120.204 57.976C120.876 58.424 121.212 59.256 121.212 60.472C121.212 60.984 121.116 61.416 120.924 61.768C120.732 62.12 120.412 62.392 119.964 62.584C119.548 62.776 119.036 62.92 118.428 63.016C117.82 63.08 117.068 63.112 116.172 63.112H115.308V68.392C115.308 68.904 115.324 69.336 115.356 69.688C115.42 70.008 115.5 70.264 115.596 70.456C115.692 70.648 115.82 70.776 115.98 70.84C116.172 70.904 116.396 70.936 116.652 70.936C117.036 70.936 117.356 70.808 117.612 70.552C117.868 70.264 118.06 69.96 118.188 69.64C118.348 69.288 118.54 68.984 118.764 68.728C119.02 68.44 119.308 68.296 119.628 68.296C120.364 68.296 120.924 68.472 121.308 68.824C121.724 69.176 121.932 69.608 121.932 70.12C121.932 70.984 121.756 71.912 121.404 72.904C121.084 73.896 120.604 74.856 119.964 75.784C119.324 76.712 118.428 77.48 117.276 78.088C116.156 78.696 114.892 79 113.484 79C110.316 79 108.076 78.2 106.764 76.6C105.452 75 104.796 72.376 104.796 68.728ZM137.722 55.768C140.698 55.768 143.178 56.376 145.162 57.592C147.146 58.808 148.138 60.136 148.138 61.576C148.138 61.992 147.962 62.376 147.61 62.728C147.258 63.08 146.81 63.256 146.266 63.256C145.786 63.256 145.258 63.096 144.682 62.776C144.106 62.424 143.562 62.056 143.05 61.672C142.538 61.288 141.866 60.936 141.034 60.616C140.202 60.296 139.322 60.136 138.394 60.136C137.146 60.136 136.522 60.52 136.522 61.288C136.522 61.832 136.842 62.264 137.482 62.584C138.122 62.904 139.05 63.24 140.266 63.592C141.514 63.944 142.458 64.28 143.098 64.6C145.498 65.528 147.146 66.536 148.042 67.624C148.938 68.68 149.386 70.088 149.386 71.848C149.386 72.712 149.146 73.576 148.666 74.44C148.186 75.272 147.466 76.072 146.506 76.84C145.546 77.576 144.234 78.184 142.57 78.664C140.938 79.112 139.066 79.336 136.954 79.336C132.826 79.336 129.738 78.392 127.69 76.504C126.698 75.576 126.202 74.616 126.202 73.624C126.202 73.016 126.394 72.536 126.778 72.184C127.194 71.832 127.77 71.656 128.506 71.656C129.242 71.656 130.362 72.024 131.866 72.76C133.37 73.464 134.762 73.816 136.042 73.816C137.802 73.816 138.682 73.384 138.682 72.52C138.682 72.072 138.218 71.72 137.29 71.464C136.362 71.176 135.146 70.84 133.642 70.456C132.138 70.072 130.938 69.592 130.042 69.016C128.634 68.408 127.642 67.656 127.066 66.76C126.522 65.832 126.25 64.712 126.25 63.4C126.25 61.16 127.306 59.336 129.418 57.928C131.562 56.488 134.33 55.768 137.722 55.768Z" fill="white"/>
</svg>
